<svg width="40" height="40" viewBox="0 0 40 40" fill="none" xmlns="http://www.w3.org/2000/svg">
<g filter="url(#filter0_d_299_7521)">
<circle cx="20" cy="18" r="16.5" fill="white" fill-opacity="0.95" stroke="#DADADA"/>
<g opacity="0.01">
<rect x="7.5" y="5.5" width="25" height="25" fill="black" fill-opacity="0.6"/>
<rect opacity="0.7" x="9.58337" y="7.58325" width="20.8333" height="20.8333" fill="black" fill-opacity="0.6"/>
</g>
<circle cx="20" cy="18.0001" r="8.95833" stroke="black" stroke-opacity="0.6" stroke-linejoin="round"/>
<path d="M16.8214 19.7476C17.4559 20.8437 18.6417 21.5812 19.9998 21.5812C21.358 21.5812 22.5438 20.8437 23.1783 19.7476" stroke="black" stroke-opacity="0.6" stroke-linecap="round" stroke-linejoin="round"/>
<path d="M22.8927 15.1838C22.3175 15.1838 21.8511 15.6502 21.8511 16.2255C21.8511 16.8008 22.3175 17.2672 22.8927 17.2672C23.4681 17.2672 23.9344 16.8008 23.9344 16.2255C23.9344 15.6502 23.4681 15.1838 22.8927 15.1838Z" fill="black" fill-opacity="0.6"/>
<path d="M17.1071 15.1838C16.5318 15.1838 16.0654 15.6502 16.0654 16.2255C16.0654 16.8008 16.5318 17.2672 17.1071 17.2672C17.6823 17.2672 18.1488 16.8008 18.1488 16.2255C18.1488 15.6502 17.6823 15.1838 17.1071 15.1838Z" fill="black" fill-opacity="0.6"/>
</g>
<defs>
<filter id="filter0_d_299_7521" x="0" y="0" width="40" height="40" filterUnits="userSpaceOnUse" color-interpolation-filters="sRGB">
<feFlood flood-opacity="0" result="BackgroundImageFix"/>
<feColorMatrix in="SourceAlpha" type="matrix" values="0 0 0 0 0 0 0 0 0 0 0 0 0 0 0 0 0 0 127 0" result="hardAlpha"/>
<feOffset dy="2"/>
<feGaussianBlur stdDeviation="1.5"/>
<feComposite in2="hardAlpha" operator="out"/>
<feColorMatrix type="matrix" values="0 0 0 0 0 0 0 0 0 0 0 0 0 0 0 0 0 0 0.16 0"/>
<feBlend mode="normal" in2="BackgroundImageFix" result="effect1_dropShadow_299_7521"/>
<feBlend mode="normal" in="SourceGraphic" in2="effect1_dropShadow_299_7521" result="shape"/>
</filter>
</defs>
</svg>
