<svg width="32" height="32" viewBox="0 0 32 32" fill="none" xmlns="http://www.w3.org/2000/svg">
  <!-- Adjusted circle position and radius for additional margin -->
  <circle cx="16" cy="16" r="10.5" fill="white" stroke="#616161" stroke-linecap="round"/>
  <path fill-rule="evenodd" clip-rule="evenodd" d="M11.5 13C11.5 12.3 12.1 11.7 12.8 11.7C13.5 11.7 14.1 12.3 14.1 13C14.1 13.7 13.5 14.3 12.8 14.3C12.1 14.3 11.5 13.7 11.5 13Z" fill="#616161"/>
  <path fill-rule="evenodd" clip-rule="evenodd" d="M18.5 13C18.5 12.3 19.1 11.7 19.8 11.7C20.5 11.7 21.1 12.3 21.1 13C21.1 13.7 20.5 14.3 19.8 14.3C19.1 14.3 18.5 13.7 18.5 13Z" fill="#616161"/>
  <!-- Adjusted mouth position to center -->
  <path d="M12 19C12 19 13.5 17 16 17C18.5 17 20 19 20 19" stroke="#616161" stroke-width="1.2" stroke-linecap="round"/>
  <!-- Adjusted circle position for margin -->
  <circle cx="24" cy="24" r="4.5" fill="#616161"/>
  <path d="M22 22L26 26M26 22L22 26" stroke="white" stroke-linecap="round"/>
</svg>
